<svg width="1920" height="542" viewBox="0 0 1920 542" fill="none" xmlns="http://www.w3.org/2000/svg">
<path fill-rule="evenodd" clip-rule="evenodd" d="M1919.09 172.094L1898.67 453.639L1878.34 525.584L1847.15 541.181V342.449L1850.17 215.261L1845.94 226.128L1840.51 361.467L1821.89 490.165L1794.32 523.773L1795.63 457.261L1799.25 270.705L1784.16 127.92L1789.59 223.21L1744.61 349.292L1726 361.467H1693.6L1730.83 212.343L1754.78 127.92L1687.56 334.5L1657.17 332.488L1653.25 434.822L1611.89 235.688L1593.17 241.625L1596.7 353.518L1588.85 354.625L1574.26 498.014L1559.87 515.925L1555.34 361.467L1527.77 305.42L1522.54 312.866L1527.77 266.78L1524.65 260.441L1504.22 297.773L1478.56 348.084L1393.34 348.185L1398.17 361.568L1455.42 355.53L1375.73 445.186L1335.18 464.405L1284.16 445.891L1286.98 380.888L1275.71 364.889L1273.19 327.457L1275.1 289.32L1273.19 265.171V297.773L1267.15 368.712L1253.37 408.056L1248.24 413.087L1253.37 339.229L1249.65 346.173L1240.69 435.023L1221.37 488.958L1215.84 418.823L1208.49 420.433L1219.56 350.902L1207.38 355.53L1193.4 443.576L1167.44 510.39L1152.14 526.389L1176.99 390.849L1195.61 351.405L1215.84 344.965L1193.9 318.3L1199.43 329.368L1184.34 348.99L1169.75 412.785L1148.12 495.599L1129.2 509.384L1126.48 509.082L1138.86 413.087L1135.44 415.2L1123.16 515.019L1114.61 523.471L1104.04 526.792L1076.27 489.159V418.923L1050.71 361.266L1046.69 383.705L1050.71 426.068L1037.23 514.717L990.74 531.521L983.294 433.816L1001.51 318.904L1022.14 330.878L1029.28 147.441L1023.04 118.461L1017.41 194.432L983.294 305.621L971.119 315.784L996.073 134.762L1005.63 101.053L995.47 28.9061L972.427 0.63092L971.119 35.5473L976.351 30.818L971.119 143.516L951.397 375.353L908.833 503.95L891.928 514.214L898.167 355.53L931.372 82.9411V45.811L918.794 86.0604L908.833 100.852L919.398 94.5128L895.349 253.699L837.893 361.467L810.825 373.743L802.775 380.888L816.863 226.33L796.436 173.804L786.173 198.256L776.613 227.638L791.103 167.767V122.386L776.613 144.523L764.035 181.854L743.609 192.42L750.854 202.884L774.802 207.413L781.443 402.019L779.028 484.228L829.038 509.988L725.195 484.027L722.075 484.329L702.454 292.439L697.624 285.899V375.353L673.273 479.599L654.657 486.744L658.984 379.479L666.632 365.694L649.023 288.415L643.689 291.634L646.507 321.218L614.307 426.068L543.971 428.986L549.606 435.023L585.026 439.652L595.088 485.939L535.72 474.769L509.357 478.794L524.35 266.68L497.785 218.783L492.452 260.743L442.241 408.459L488.628 213.148L452.203 125.505L434.292 360.159L396.658 409.264L331.454 385.818L312.638 388.334L295.029 294.653L271.281 279.258L253.27 226.531L237.874 227.638L252.565 317.293L263.634 445.186L237.874 526.792V498.014L207.687 529.207L189.676 516.327L173.978 526.792L166.23 450.821L95.8943 302.703L115.918 363.681L107.969 432.407L51.1168 394.874L61.5817 413.59L92.775 433.212L103.944 520.352L95.0893 525.987L0 511.598V541.181H251.257L270.074 484.429L331.555 426.068H389.414L350.573 505.963L283.557 541.181H418.292L434.292 521.157L611.892 494.794H624.571L778.827 541.181H883.274L911.147 525.182L959.044 390.044L977.458 360.159L971.119 445.186L970.113 541.181H1388.41L1412.86 468.028L1533.1 371.127L1541.86 401.415L1538.13 483.624L1478.56 541.181H1919.09V172.094Z" fill="url(#paint0_linear)" fill-opacity="0.1"/>
<defs>
<linearGradient id="paint0_linear" x1="959.536" y1="541.155" x2="959.536" y2="0.605145" gradientUnits="userSpaceOnUse">
<stop stop-color="#C77CBD"/>
<stop offset="1" stop-color="#974577"/>
</linearGradient>
</defs>
</svg>
