<svg width="38" height="38" viewBox="0 0 38 38" fill="none" xmlns="http://www.w3.org/2000/svg">
<path fill-rule="evenodd" clip-rule="evenodd" d="M8.34827 3.16506C11.4372 1.10128 15.0688 -0.000170319 18.7837 1.97542e-08C23.7649 0.000685142 28.5419 1.97983 32.0641 5.50217C35.5862 9.0245 37.5652 13.8016 37.5656 18.7828C37.5656 22.4977 36.464 26.1292 34.4001 29.2181C32.3362 32.3069 29.4026 34.7143 25.9705 36.1359C22.5383 37.5575 18.7617 37.9295 15.1182 37.2047C11.4746 36.4798 8.12785 34.6909 5.50106 32.064C2.87427 29.4371 1.08545 26.0902 0.36081 22.4466C-0.363832 18.8031 0.00825346 15.0264 1.43001 11.5943C2.85177 8.16225 5.25934 5.22883 8.34827 3.16506ZM18.1091 25.9381C18.1091 25.5044 17.7542 25.189 17.36 25.189C16.9657 25.189 16.6109 25.5044 16.6109 25.9381C16.6109 26.3718 16.9657 26.6872 17.36 26.6872C17.7937 26.6872 18.1091 26.3324 18.1091 25.9381ZM28.2023 19.8664C28.2023 20.3001 28.5571 20.6155 28.9514 20.6155C29.3456 20.6155 29.7005 20.2607 29.7005 19.8664C29.7005 19.4327 29.3456 19.1173 28.9514 19.1173C28.5177 19.1173 28.2023 19.4722 28.2023 19.8664ZM26.6646 19.8664C26.6646 18.6048 27.6897 17.5797 28.9514 17.5797C30.213 17.5797 31.2381 18.6048 31.2381 19.9058C31.2381 21.1675 30.213 22.1926 28.9514 22.1926C28.4388 22.1926 27.9263 22.0349 27.532 21.7195L19.6467 25.9775C19.6073 27.2392 18.6216 28.2248 17.36 28.2248C16.256 28.2248 15.2704 27.3575 15.1127 26.2535L7.93704 22.5474C6.75425 21.956 5.92629 20.2607 6.00514 18.6442C6.04457 17.6191 6.47826 16.7912 7.14851 16.3969C7.3677 16.2654 9.51229 15.1955 12.2341 13.8378C14.408 12.7533 16.9502 11.4851 19.1736 10.3646L19.4496 10.2464C19.5679 10.1675 20.3564 9.73381 21.3026 10.2464C22.4066 10.8378 24.9299 12.0205 27.1378 13.0456C27.5553 13.2383 27.9794 13.4376 28.3834 13.6274C28.9712 13.9036 29.5164 14.1598 29.937 14.3467C29.937 14.3467 30.2919 14.5044 30.2919 14.8593C30.2919 15.1352 30.0947 15.2929 29.8976 15.3718L17.7542 21.68C17.084 21.9955 16.8869 21.9166 16.4926 21.7589C16.3471 21.6862 14.0698 20.4953 11.9158 19.369C10.5669 18.6636 9.26626 17.9835 8.56787 17.6191L8.52844 17.5797C8.25245 17.4614 8.05532 17.422 7.85819 17.5403C7.5822 17.698 7.38507 18.1317 7.34564 18.6836C7.26679 19.7876 7.81876 20.9309 8.52844 21.3252L15.3098 24.8736C15.7041 24.1245 16.4926 23.6119 17.36 23.6119C18.1091 23.6119 18.8188 23.9668 19.2524 24.5976L26.7829 20.5761C26.7041 20.3395 26.6646 20.103 26.6646 19.8664Z" fill="white"/>
</svg>
