<svg width="49" height="82" viewBox="0 0 49 82" fill="none" xmlns="http://www.w3.org/2000/svg">
    <path fill-rule="evenodd" clip-rule="evenodd" d="M21.6184 29.7219C21.5274 29.4494 21.6501 29.2072 21.7683 28.974C21.8179 28.8761 21.8667 28.7797 21.8986 28.6834C22.4548 27.1058 23.3664 25.6608 24.5706 24.4482C25.1439 23.8677 25.8135 23.3794 26.553 23.0025C27.6154 22.4245 28.8004 22.0767 30.0223 21.9844C31.1138 21.913 32.2104 21.9953 33.2762 22.2287C34.8391 22.6364 36.3029 23.328 37.5858 24.2649C38.5572 24.9113 39.3967 25.7184 40.0639 26.6472C40.2089 26.8756 40.3669 27.0957 40.5242 27.315C40.7177 27.5846 40.9103 27.8529 41.0767 28.1336C41.778 29.3074 42.2524 30.5899 42.4774 31.9209C42.6037 32.6749 42.6542 33.4385 42.6282 34.2014C42.5668 35.1437 42.408 36.078 42.1541 36.991C41.809 38.1588 41.2941 39.2758 40.6242 40.31C40.0085 41.2725 39.3396 42.2036 38.6202 43.0995C38.6202 43.147 38.5914 43.1923 38.5627 43.2375C38.5052 43.328 38.4478 43.4185 38.6202 43.5271C38.8634 43.6804 38.916 43.5453 38.9752 43.3931L38.9865 43.3642C39.4599 42.8618 39.899 42.3313 40.301 41.776C40.4087 41.6131 40.4949 41.5317 40.6457 41.776C41.1523 42.4992 41.6059 43.2544 42.0033 44.0362C42.5211 45.1263 42.8834 46.2766 43.0807 47.4569C43.3251 48.8046 43.3251 50.1817 43.0807 51.5293C42.9425 52.4354 42.719 53.3281 42.4127 54.1967C42.0702 55.1257 41.6146 56.014 41.0552 56.8437C40.4499 57.7723 39.7262 58.6271 38.9003 59.3889C38.9003 59.3889 38.6848 59.5518 38.7926 59.6943C38.8683 59.7946 38.9761 59.7538 39.0634 59.7208C39.1002 59.7069 39.1333 59.6943 39.1589 59.6943C39.3227 59.5184 39.4891 59.3425 39.6563 59.1657L39.6564 59.1657L39.6564 59.1656C39.973 58.831 40.2924 58.4933 40.6026 58.1469L40.6383 58.1044C40.7789 57.936 40.8076 57.9016 40.9474 58.1469C41.1848 58.8546 41.3366 59.5855 41.3999 60.3256C41.5081 61.4831 41.4355 62.6494 41.1844 63.7871C40.88 65.1975 40.3876 66.5659 39.7191 67.8594C39.1938 68.9972 38.5361 70.0762 37.7582 71.0766C37.0999 71.943 36.3799 72.7662 35.6034 73.5403C34.8831 74.2663 34.1129 74.9465 33.2977 75.5765C32.3508 76.3205 31.35 77.0009 30.3025 77.6127C29.3754 78.1132 28.5148 78.7394 27.6332 79.3808L27.6316 79.3819C27.5096 79.4707 27.3872 79.5598 27.2641 79.6488C26.2514 80.3819 25.9281 80.5651 25.1093 80.952C24.5324 81.2245 24.5438 81.0019 24.5556 80.7683C24.5606 80.6702 24.5657 80.5702 24.5275 80.504C24.5371 80.4966 24.5465 80.4889 24.5557 80.4809L24.2908 80.3002C24.0053 79.5994 23.6668 78.9189 23.2781 78.264C23.168 78.0086 23.0439 77.7533 22.9189 77.4959C22.7747 77.1991 22.6292 76.8997 22.5023 76.5943C22.2653 76.0242 21.8128 74.8636 21.5326 73.9677C21.3365 73.3405 21.2144 72.7832 21.0922 72.2259C21.0398 71.9871 20.9875 71.7482 20.9293 71.5039C20.7531 70.7867 20.6307 70.0587 20.5629 69.3252C20.5629 68.8394 20.49 68.3605 20.4162 67.8764C20.3632 67.5287 20.3098 67.1782 20.2828 66.8207C20.2589 66.5049 20.2527 66.2168 20.2467 65.9412C20.2365 65.4704 20.2271 65.0357 20.132 64.5605C20.0674 63.9444 20.0674 63.3238 20.132 62.7076C20.0832 61.349 20.1263 59.9887 20.2613 58.6353C20.3337 58.5531 20.3087 58.4617 20.2846 58.3735C20.2728 58.3306 20.2613 58.2884 20.2613 58.2484C20.2613 58.1262 20.4337 57.8615 20.5845 57.8004C20.6878 57.7586 20.7607 57.86 20.838 57.9673C20.8736 58.0167 20.91 58.0673 20.9508 58.1059C21.0057 58.1578 21.0956 58.2537 21.1991 58.3642L21.1991 58.3642C21.3392 58.5137 21.504 58.6897 21.6404 58.8185C21.695 58.8702 21.7325 58.9121 21.7599 58.9428C21.7953 58.9823 21.8139 59.0032 21.8312 59.0021C21.8504 59.0008 21.8678 58.9724 21.9046 58.9124C21.9203 58.8869 21.9394 58.8557 21.9636 58.8185C22.0762 58.6456 22.0417 58.6117 22.0042 58.5749C21.9843 58.5554 21.9636 58.5351 21.9636 58.4927C21.3868 57.9218 20.8674 57.3015 20.4121 56.6398C20.1133 56.1148 19.854 55.5704 19.6364 55.0109C19.3223 54.211 19.1195 53.376 19.033 52.5268C18.9682 51.8494 18.9682 51.1679 19.033 50.4906C19.0782 49.1635 19.2805 47.8453 19.6364 46.5608C19.8947 45.6518 20.2187 44.7605 20.606 43.8934C21.1208 42.7334 21.7109 41.6046 22.373 40.5133C22.7393 39.9025 22.9764 39.9025 23.3858 40.5133C23.5345 40.7457 23.7157 40.958 23.9245 41.1445C23.9767 41.1918 24.0462 41.2182 24.1184 41.2182C24.1907 41.2182 24.2602 41.1918 24.3124 41.1445C24.4326 41.0594 24.3852 40.9742 24.3454 40.9028C24.3282 40.8718 24.3124 40.8434 24.3124 40.8188C23.8122 40.267 23.3651 39.6741 22.9764 39.0473C22.6787 38.6311 22.426 38.1877 22.2222 37.7238C21.6545 36.5484 21.2768 35.2992 21.1017 34.0179C20.8409 32.5687 21.0201 31.0794 21.6184 29.7225V29.7219ZM31.8545 56.9045C32.2608 57.4604 32.8782 57.8469 33.5783 57.9837C33.9867 58.0669 34.4119 58.0362 34.8022 57.8952C35.1924 57.7542 35.5308 57.5091 35.7763 57.1896C36.2626 56.6427 36.6355 56.0141 36.8753 55.3367C37.3887 53.8531 37.615 52.2943 37.5433 50.7349C37.5442 49.6148 37.3921 48.4993 37.0907 47.416C36.9807 46.8093 36.7451 46.2291 36.3976 45.7085C36.05 45.1879 35.5972 44.7372 35.0652 44.3821C34.6926 44.155 34.2587 44.0342 33.8154 44.0342C33.372 44.0342 32.9381 44.155 32.5656 44.3821C31.7207 45.0828 31.1135 46.0036 30.8201 47.0291C30.6301 47.6212 30.4932 48.2275 30.4107 48.8413V51.1422C30.3521 52.1445 30.4245 53.1498 30.6262 54.1353C30.817 55.132 31.2362 56.0772 31.8545 56.9045ZM34.7203 69.7937C34.5865 71.3119 34.1245 72.788 33.3628 74.1308C33.1337 74.6216 32.7929 75.0585 32.3645 75.4105C31.9362 75.7625 31.4309 76.0208 30.8847 76.1669C30.491 76.2508 30.0802 76.2284 29.6992 76.1024C29.3182 75.9764 28.9824 75.7518 28.7299 75.4543C28.1736 74.7869 27.7899 74.006 27.6094 73.1738C27.366 72.0966 27.315 70.9886 27.4585 69.8955C27.5588 68.285 27.9449 66.7019 28.6006 65.2123C29.0113 64.241 29.6791 63.3857 30.5399 62.7282C30.9186 62.4491 31.385 62.2976 31.8652 62.2976C32.3454 62.2976 32.8118 62.4491 33.1904 62.7282C34.0353 63.388 34.5824 64.3273 34.7203 65.3549C34.9467 66.8267 34.9467 68.3218 34.7203 69.7937ZM36.0539 38.7013C36.4383 37.9617 36.6722 37.1605 36.7435 36.3393C36.8715 34.4598 36.7558 32.5725 36.3987 30.7195C36.1614 29.4599 35.7332 28.2392 35.1273 27.0951C34.8896 26.6624 34.5594 26.2811 34.1577 25.9752C33.9279 25.7613 33.6183 25.6414 33.2957 25.6414C32.9732 25.6414 32.6636 25.7613 32.4338 25.9752C32.025 26.3076 31.7446 26.7588 31.6365 27.258C31.4781 27.8677 31.3629 28.4867 31.2917 29.1109C31.1181 30.1565 31.1181 31.2213 31.2917 32.267C31.3859 33.4218 31.5878 34.5665 31.8951 35.6877C32.1768 36.8918 32.7441 38.0197 33.5543 38.9863C33.7057 39.1818 33.9094 39.3357 34.1446 39.4322C34.3798 39.5286 34.6379 39.5641 34.8924 39.5351C35.1469 39.5061 35.3887 39.4135 35.5928 39.267C35.7969 39.1205 35.9561 38.9252 36.0539 38.7013Z" fill="white"/>
    <path fill-rule="evenodd" clip-rule="evenodd" d="M20.374 33.6505L20.3679 33.6562C20.2943 32.9501 20.3085 32.2379 20.4105 31.5341C20.7342 29.5906 21.4669 27.7282 22.5653 26.0568C22.9963 25.446 22.867 25.2016 22.199 24.8555C21.531 24.5093 20.7983 24.1632 20.0441 23.8578C18.9253 23.3838 17.7312 23.0879 16.5102 22.9822C15.3041 22.891 14.0906 23.0153 12.9332 23.3487C11.9744 23.6069 11.0703 24.0202 10.2611 24.5704C9.57847 25.0279 8.95631 25.5612 8.40797 26.1586C7.52922 27.0972 6.803 28.154 6.25312 29.2943C5.82847 30.1562 5.47545 31.0481 5.19725 31.9617C4.99049 32.6271 4.84628 33.3085 4.76628 33.9979C4.64762 34.9993 4.64762 36.01 4.76628 37.0114C4.87285 37.9289 5.06759 38.8354 5.34809 39.7195C5.45583 40.0046 5.43428 40.1675 5.08951 40.31C4.3593 40.5479 3.6909 40.9296 3.1286 41.4299C2.45153 42.0949 1.89138 42.8579 1.46936 43.6901C0.90141 44.8912 0.579682 46.1833 0.521231 47.4977C0.340763 49.8267 0.816613 52.1592 1.90033 54.2578C1.90033 54.2978 1.93267 54.34 1.96558 54.3829C2.03319 54.4711 2.10325 54.5625 1.90033 54.6447C1.59865 54.7669 1.59865 54.5225 1.59865 54.4004C1.59054 54.3395 1.59054 54.2779 1.59865 54.2171C1.47413 54.3764 1.40624 54.5688 1.40472 54.7669C1.45623 55.2342 1.45356 55.7154 1.45087 56.1995C1.44794 56.7279 1.44499 57.2597 1.51246 57.7804C1.68441 58.9857 1.98031 60.1723 2.39595 61.3233C2.88167 62.6432 3.50988 63.9123 4.27067 65.1106C4.62374 65.749 5.02703 66.3615 5.47714 66.9429L5.47645 66.943C5.77002 67.5115 6.12379 68.0504 6.53233 68.5516C6.72626 68.6941 6.89865 68.8163 7.17878 68.5516C8.18116 67.5307 9.10303 66.4419 9.93698 65.2937C11.0463 63.8468 11.9992 62.2983 12.7814 60.6716C13.375 59.2822 13.8014 57.8343 14.0527 56.3549C14.0743 56.1309 13.8373 56.1309 13.7295 56.1309C13.6963 56.1309 13.657 56.1502 13.6147 56.171C13.5197 56.2177 13.4096 56.2718 13.3201 56.1309C13.1908 55.9273 13.3847 55.7848 13.5787 55.7848C14.1363 55.5455 14.6242 55.1822 15.0009 54.726C15.9152 53.7598 16.6444 52.6504 17.1557 51.4477C17.6757 50.4251 18.0802 49.3536 18.3624 48.2509C18.6542 47.2831 18.8703 46.2963 19.0089 45.2985C19.0732 44.4783 19.0732 43.6548 19.0089 42.8347C19.0089 42.5496 18.815 42.5089 18.6857 42.5496C18.5564 42.5904 18.4486 42.57 18.4486 42.4478C18.4386 42.4239 18.434 42.3982 18.4352 42.3724C18.4363 42.3466 18.4432 42.3214 18.4555 42.2983C18.4677 42.2753 18.4849 42.2549 18.506 42.2386C18.5271 42.2222 18.5516 42.2103 18.5779 42.2035C19.7054 41.5581 20.7045 40.7311 21.5301 39.7601L21.535 39.7543C21.8783 39.3488 22.2394 38.9223 21.8748 38.294C21.4225 37.5307 21.0955 36.7068 20.9052 35.8506C20.8703 35.7149 20.8271 35.5539 20.7801 35.3794C20.6275 34.8117 20.4364 34.1011 20.374 33.6505ZM7.50335 45.8688C7.08264 46.8989 6.75817 47.9617 6.53367 49.0453C6.3913 50.1097 6.47928 51.1904 6.79225 52.2217C6.97718 52.5499 7.25368 52.824 7.59176 53.0142C7.92984 53.2044 8.31659 53.3036 8.71007 53.3009C9.09905 53.246 9.47266 53.1188 9.80925 52.9265C10.1458 52.7343 10.4387 52.4809 10.671 52.181C12.2618 50.2381 13.1731 47.8754 13.2783 45.4209C13.3596 44.5014 13.0581 43.5883 12.438 42.8757C12.2738 42.674 12.0548 42.5183 11.8044 42.425C11.5539 42.3318 11.2813 42.3046 11.0158 42.3463C10.582 42.4146 10.1675 42.5653 9.7971 42.7893C9.42674 43.0133 9.10826 43.3059 8.86091 43.6494C8.32061 44.3381 7.86515 45.0827 7.50335 45.8688ZM17.629 26.6065C18.1678 26.6065 18.6418 27.3395 18.7065 27.9504C18.7846 29.3303 18.5872 30.7118 18.1247 32.0227C17.9336 32.6547 17.6719 33.2644 17.4092 33.8766L17.4091 33.8766L17.4091 33.8768C17.3163 34.0929 17.2234 34.3094 17.1334 34.5272C16.6967 35.5387 16.085 36.4745 15.3234 37.2964C14.7416 37.8869 13.815 38.1109 13.3409 37.724C13.0473 37.4313 12.8523 37.0628 12.7806 36.6652C12.6439 35.7404 12.7025 34.7992 12.953 33.896C13.2232 32.6445 13.65 31.4278 14.2244 30.2716C14.7137 28.8893 15.6292 27.6768 16.8533 26.7898C17.0855 26.654 17.3566 26.59 17.629 26.6065ZM6.12449 58.2894C5.58177 59.2137 5.27897 60.2465 5.241 61.303C5.18464 62.0329 5.3101 62.7651 5.60732 63.4409C5.7329 63.6302 5.90786 63.7858 6.1154 63.8928C6.32294 63.9997 6.5561 64.0545 6.79249 64.0518C7.13847 63.9517 7.45591 63.7788 7.72092 63.546C7.98593 63.3132 8.19159 63.0267 8.32243 62.7079C8.70164 61.8168 8.93419 60.876 9.01198 59.9184C9.07161 59.2286 8.97614 58.5346 8.73185 57.8822C8.6633 57.6621 8.51658 57.4711 8.31641 57.3413C8.11624 57.2115 7.87485 57.1508 7.63288 57.1695C6.77419 57.1492 6.42877 57.7554 6.1279 58.2834L6.12449 58.2894Z" fill="white"/>
    <path fill-rule="evenodd" clip-rule="evenodd" d="M26.3367 16.6089C26.6574 18.1631 27.1785 19.6743 27.8882 21.1088C27.99 21.007 28.0837 20.8981 28.1683 20.783C28.2976 20.615 28.4283 20.4483 28.5589 20.2816C28.9508 19.7815 29.3427 19.2813 29.6983 18.7469C30.2058 18.035 30.6526 17.286 31.0343 16.5071C31.6787 15.156 32.1908 13.7519 32.5642 12.3125C32.8609 11.4041 33.0984 10.4793 33.2753 9.54335C33.3067 9.28461 33.3372 9.02498 33.3678 8.76502C33.4838 7.77708 33.6003 6.78435 33.7709 5.81715C34.0942 4.04568 34.5036 2.29457 34.9992 0.543462C34.9992 0.510248 35.0107 0.477034 35.0224 0.443113C35.0466 0.373058 35.0718 0.299988 34.9992 0.217674C34.9266 0.13536 34.8442 0.163966 34.7653 0.191391C34.727 0.204671 34.6896 0.217674 34.6544 0.217674C34.4174 0.339844 34.1696 0.416201 33.9218 0.492557C33.674 0.568914 33.4262 0.64527 33.1891 0.767441C32.0788 1.31604 31.05 2.00068 30.1292 2.80361C29.2977 3.53018 28.5729 4.35881 27.9744 5.26738C27.4801 6.0373 27.096 6.86578 26.8323 7.73115C26.4927 8.62931 26.2473 9.55684 26.0997 10.5004C25.939 11.4904 25.8741 12.4923 25.9057 13.4935C25.9751 14.5399 26.1191 15.5808 26.3367 16.6089ZM30.9244 6.87614L32.0018 5.53227L31.9372 5.47118C30.6352 6.79941 29.5593 8.3106 28.748 9.95076C27.7975 11.8673 27.6739 14.0581 28.4033 16.0593C28.4598 15.9813 28.49 15.8891 28.49 15.7946C28.49 15.7001 28.4598 15.6078 28.4033 15.5299C28.0265 14.251 28.0265 12.8993 28.4033 11.6204C28.9218 9.90376 29.777 8.29442 30.9244 6.87614Z" fill="white"/>
    <path fill-rule="evenodd" clip-rule="evenodd" d="M34.2438 21.2104C36.3948 21.9836 38.6383 22.5033 40.9238 22.7579C41.7207 22.8174 42.5217 22.8037 43.3157 22.7172C44.2224 22.6234 45.0895 22.3152 45.8369 21.8213C46.9701 20.9917 47.7378 19.7947 47.9917 18.4616C48.2864 17.0817 48.4094 15.6739 48.3581 14.2671C48.3581 13.982 48.2503 13.982 48.0348 13.982C47.6093 14.0202 47.1975 14.1452 46.8281 14.3485C45.9288 14.7977 45.1076 15.3746 44.3931 16.0589C43.9842 16.4781 43.5034 16.8292 42.9709 17.0973C41.6959 17.6202 40.33 17.917 38.9414 17.9729C38.5372 18.0153 38.1069 18.0436 37.6674 18.0725C37.0526 18.1129 36.4201 18.1545 35.8169 18.2376C34.4294 18.3496 33.123 18.9022 32.1105 19.8055C32.0701 19.849 32.0236 19.8839 31.9783 19.9178C31.8544 20.0106 31.7399 20.0963 31.7873 20.3349C31.8519 20.6606 32.1321 20.6606 32.3475 20.6606C32.66 20.7625 32.9778 20.849 33.2957 20.9355C33.6135 21.0221 33.9314 21.1086 34.2438 21.2104ZM45.95 17.5609C46.013 17.4699 46.0556 17.3675 46.075 17.2603C45.5862 17.5297 45.1488 17.8314 44.7087 18.135C44.4504 18.3132 44.1912 18.492 43.9201 18.6652C42.0779 19.7282 39.9326 20.2261 37.7788 20.0905H37.5849C37.5785 20.112 37.5768 20.1344 37.5799 20.1564C37.583 20.1785 37.5908 20.1997 37.6029 20.2188C37.615 20.2379 37.6312 20.2544 37.6503 20.2674C37.6694 20.2803 37.6912 20.2894 37.7142 20.2942H38.0374C39.5438 20.2949 41.0388 20.0468 42.4549 19.5611C43.6144 19.1032 44.7078 18.5079 45.7087 17.7897C45.8049 17.7299 45.887 17.652 45.95 17.5609Z" fill="white"/>
    <path fill-rule="evenodd" clip-rule="evenodd" d="M22.4567 20.0499C23.5911 20.0364 24.6981 20.3803 25.6027 21.0272C25.7045 20.7938 25.6396 20.6067 25.5799 20.4346C25.5511 20.3515 25.5236 20.272 25.5165 20.1924C25.3481 19.191 24.902 18.2496 24.2236 17.4639C22.846 16.0541 21.1728 14.9308 19.3106 14.1653C18.1254 13.6156 17.048 13.0862 15.9706 12.4753C14.7199 11.8213 13.661 10.8837 12.8891 9.74683C12.7603 10.3585 12.7603 10.9881 12.8891 11.5997C13.0275 12.8726 13.438 14.1057 14.0959 15.2241C14.8205 16.5441 15.8255 17.7086 17.048 18.6449C17.5917 19.1075 18.2195 19.4731 18.9012 19.7241C20.0703 19.9544 21.2625 20.0636 22.4567 20.0499ZM17.9305 16.2626C17.0885 15.5608 16.3622 14.7441 15.7757 13.8395C15.5818 13.8395 15.5818 13.8395 15.668 14.0228C15.9285 14.5008 16.2312 14.9571 16.573 15.387C17.3508 16.2574 18.2755 17.0005 19.3096 17.5861C20.0922 18.0344 20.9228 18.403 21.7877 18.6856C21.7877 18.7263 21.9601 18.706 22.0248 18.5431C22.0556 18.4654 22.1059 18.4618 22.1059 18.4616C22.1059 18.4614 22.0451 18.4654 21.8308 18.3802C21.6618 18.3129 21.4891 18.2526 21.3157 18.1921C21.0692 18.106 20.8214 18.0194 20.581 17.9119C19.6016 17.5139 18.7043 16.9555 17.9305 16.2626Z" fill="white"/>
</svg>
