<svg width="1440" height="734" viewBox="0 0 1440 734" fill="none" xmlns="http://www.w3.org/2000/svg">
<g clip-path="url(#clip0)">
<g opacity="0.05">
<path opacity="0.05" d="M948.906 199.766C964.008 199.766 976.25 189.886 976.25 177.698C976.25 165.511 964.008 155.631 948.906 155.631C933.804 155.631 921.561 165.511 921.561 177.698C921.561 189.886 933.804 199.766 948.906 199.766Z" fill="#2B2910"/>
<path opacity="0.05" d="M1062.68 209.406C1077.78 209.406 1090.03 199.526 1090.03 187.338C1090.03 175.151 1077.78 165.271 1062.68 165.271C1047.58 165.271 1035.34 175.151 1035.34 187.338C1035.34 199.526 1047.58 209.406 1062.68 209.406Z" fill="#2B2910"/>
<path opacity="0.05" d="M1035.03 182.519C1050.13 182.519 1062.37 172.639 1062.37 160.451C1062.37 148.264 1050.13 138.384 1035.03 138.384C1019.92 138.384 1007.68 148.264 1007.68 160.451C1007.68 172.639 1019.92 182.519 1035.03 182.519Z" fill="#2B2910"/>
<path opacity="0.05" d="M976.564 215.493C991.666 215.493 1003.91 205.613 1003.91 193.426C1003.91 181.238 991.666 171.358 976.564 171.358C961.463 171.358 949.22 181.238 949.22 193.426C949.22 205.613 961.463 215.493 976.564 215.493Z" fill="#2B2910"/>
<path opacity="0.05" d="M983.479 187.592C1002.75 187.592 1018.37 177.712 1018.37 165.525C1018.37 153.337 1002.75 143.457 983.479 143.457C964.211 143.457 948.591 153.337 948.591 165.525C948.591 177.712 964.211 187.592 983.479 187.592Z" fill="#2B2910"/>
<path opacity="0.05" d="M1018.05 211.434C1037.32 211.434 1052.94 201.554 1052.94 189.366C1052.94 177.179 1037.32 167.299 1018.05 167.299C998.78 167.299 983.161 177.179 983.161 189.366C983.161 201.554 998.78 211.434 1018.05 211.434Z" fill="#2B2910"/>
</g>
<g opacity="0.05">
<path opacity="0.05" d="M457.005 303.351C441.903 303.351 429.661 293.471 429.661 281.284C429.661 269.096 441.903 259.216 457.005 259.216C472.107 259.216 484.35 269.096 484.35 281.284C484.35 293.471 472.107 303.351 457.005 303.351Z" fill="#2B2910"/>
<path opacity="0.05" d="M343.227 312.991C328.125 312.991 315.883 303.111 315.883 290.924C315.883 278.736 328.125 268.856 343.227 268.856C358.329 268.856 370.572 278.736 370.572 290.924C370.572 303.111 358.329 312.991 343.227 312.991Z" fill="#2B2910"/>
<path opacity="0.05" d="M370.886 286.104C355.784 286.104 343.541 276.224 343.541 264.037C343.541 251.849 355.784 241.969 370.886 241.969C385.988 241.969 398.23 251.849 398.23 264.037C398.23 276.224 385.988 286.104 370.886 286.104Z" fill="#2B2910"/>
<path opacity="0.05" d="M429.347 319.078C414.245 319.078 402.002 309.199 402.002 297.011C402.002 284.823 414.245 274.943 429.347 274.943C444.449 274.943 456.691 284.823 456.691 297.011C456.691 309.199 444.449 319.078 429.347 319.078Z" fill="#2B2910"/>
<path opacity="0.05" d="M422.433 291.178C403.165 291.178 387.545 281.298 387.545 269.11C387.545 256.923 403.165 247.043 422.433 247.043C441.7 247.043 457.32 256.923 457.32 269.11C457.32 281.298 441.7 291.178 422.433 291.178Z" fill="#2B2910"/>
<path opacity="0.05" d="M387.859 315.019C368.591 315.019 352.971 305.139 352.971 292.952C352.971 280.764 368.591 270.884 387.859 270.884C407.127 270.884 422.746 280.764 422.746 292.952C422.746 305.139 407.127 315.019 387.859 315.019Z" fill="#2B2910"/>
</g>
<mask id="mask0" mask-type="alpha" maskUnits="userSpaceOnUse" x="-32" y="359" width="1612" height="481">
<path opacity="0.11" d="M505.514 593.628C316.231 337.979 82.5509 341.978 -10.6289 375.933L-31.4604 598.656L-24.7927 737.027L257.358 784.648L1351.88 839.552C1486.94 807.609 1703.51 688.435 1489.27 467.3C1275.04 246.165 1010.16 475.581 904.487 617.932C850.364 716.35 694.796 849.279 505.514 593.628Z" fill="white"/>
</mask>
<g mask="url(#mask0)">
<path d="M1441 359.312H-3V734H1441V359.312Z" fill="#726E17"/>
</g>
<mask id="mask1" mask-type="alpha" maskUnits="userSpaceOnUse" x="-32" y="357" width="1612" height="481">
<path opacity="0.1" d="M505.514 591.2C316.231 335.551 82.5509 339.55 -10.6289 373.506L-31.4604 596.228L-24.7927 734.6L257.358 782.221L1351.88 837.124C1486.94 805.181 1703.51 686.007 1489.27 464.872C1275.04 243.737 1010.16 473.153 904.487 615.504C850.364 713.922 694.796 846.852 505.514 591.2Z" fill="white"/>
</mask>
<g mask="url(#mask1)">
<path d="M-7.01111 374.283C43.462 432.415 200.263 539.373 423.682 502.147" stroke="#918D46" stroke-width="41" stroke-linecap="round"/>
<path d="M-7.01111 294.571C43.462 352.703 200.263 459.661 423.682 422.435" stroke="#918D46" stroke-width="41" stroke-linecap="round"/>
<path d="M-37.0944 448.331C24.6015 507.677 216.267 616.868 489.364 578.865" stroke="#918D46" stroke-width="41" stroke-linecap="round"/>
<path d="M-43.1111 530.875C29.2788 590.222 254.166 699.413 574.6 661.409" stroke="#918D46" stroke-width="41" stroke-linecap="round"/>
<path d="M1432.98 396.133C1382.51 454.265 1193.61 564.46 970.196 527.234" stroke="#918D46" stroke-width="41" stroke-linecap="round"/>
<path d="M1420.94 319.658C1370.47 377.79 1213.67 484.748 990.251 447.522" stroke="#918D46" stroke-width="41" stroke-linecap="round"/>
<path d="M1451.03 473.418C1389.33 532.764 1197.67 641.955 924.569 603.952" stroke="#918D46" stroke-width="41" stroke-linecap="round"/>
<path d="M1457.04 555.963C1384.65 615.309 1159.77 724.5 839.333 686.496" stroke="#918D46" stroke-width="41" stroke-linecap="round"/>
</g>
</g>
<defs>
<clipPath id="clip0">
<rect width="1444" height="734" fill="white" transform="translate(-3)"/>
</clipPath>
</defs>
</svg>
