<?xml version="1.0" encoding="UTF-8" standalone="no"?>
<svg
   xmlns:dc="http://purl.org/dc/elements/1.1/"
   xmlns:cc="http://creativecommons.org/ns#"
   xmlns:rdf="http://www.w3.org/1999/02/22-rdf-syntax-ns#"
   xmlns:svg="http://www.w3.org/2000/svg"
   xmlns="http://www.w3.org/2000/svg"
   xmlns:sodipodi="http://sodipodi.sourceforge.net/DTD/sodipodi-0.dtd"
   xmlns:inkscape="http://www.inkscape.org/namespaces/inkscape"
   width="125mm"
   height="125mm"
   viewBox="0 0 125 125"
   version="1.1"
   id="svg8"
   inkscape:version="1.0.1 (3bc2e813f5, 2020-09-07)"
   sodipodi:docname="Soyicon.svg">
  <defs
     id="defs2">
    <clipPath
       id="clip0">
      <rect
         width="24.6505"
         height="22.0094"
         fill="white"
         transform="translate(15 18.2823)"
         id="rect990" />
    </clipPath>
    <clipPath
       id="clip0-3">
      <rect
         width="24.6505"
         height="22.0094"
         fill="white"
         transform="translate(15 18.2823)"
         id="rect1032" />
    </clipPath>
    <clipPath
       id="clip0-0">
      <rect
         width="24.6505"
         height="22.0094"
         fill="white"
         transform="translate(15 18.2823)"
         id="rect990-4" />
    </clipPath>
    <clipPath
       id="clip0-6">
      <rect
         width="24.6505"
         height="22.0094"
         fill="white"
         transform="translate(15 18.2823)"
         id="rect990-6" />
    </clipPath>
  </defs>
  <sodipodi:namedview
     id="base"
     pagecolor="#ffffff"
     bordercolor="#666666"
     borderopacity="1.0"
     inkscape:pageopacity="0.0"
     inkscape:pageshadow="2"
     inkscape:zoom="1.1474772"
     inkscape:cx="184.64814"
     inkscape:cy="277.24338"
     inkscape:document-units="mm"
     inkscape:current-layer="Сгруппировать_246"
     inkscape:document-rotation="0"
     showgrid="false"
     inkscape:window-width="1920"
     inkscape:window-height="1017"
     inkscape:window-x="-8"
     inkscape:window-y="-8"
     inkscape:window-maximized="1" />
  <metadata
     id="metadata5">
    <rdf:RDF>
      <cc:Work
         rdf:about="">
        <dc:format>image/svg+xml</dc:format>
        <dc:type
           rdf:resource="http://purl.org/dc/dcmitype/StillImage" />
        <dc:title></dc:title>
      </cc:Work>
    </rdf:RDF>
  </metadata>
  <g
     inkscape:label="Calque 1"
     inkscape:groupmode="layer"
     id="layer1">
    <g
       id="Сгруппировать_246"
       data-name="Сгруппировать 246"
       transform="matrix(3.9946115,0,0,3.9946115,-3517.3549,-6124.9531)">
      <g
         id="Контур_20"
         data-name="Контур 20"
         transform="translate(850,1547.251)"
         fill="none"
         stroke-dasharray="8, 10">
        <path
           d="M 0,0 H 76 V 76 H 0 Z"
           stroke="none"
           id="path833" />
        <path
           d="M 0,0 H 8 V 1 H 0 Z m 18,0 h 8 v 1 h -8 z m 18,0 h 8 v 1 h -8 z m 18,0 h 8 v 1 h -8 z m 18,0 h 4 v 1 0 c 0,1.1847916 0,3 0,3 H 75 V 1 h -3 z m 3,14 h 1 c 0,0 0,8 0,8 h -1 z m 0,18 h 1 c 0,0 0,8 0,8 h -1 z m 0,18 h 1 c 0,0 0,8 0,8 h -1 z m 0,18 h 1 c 0,0 0,8 0,8 h -1 z m -17,7 h 8 v 1 c 0,0 -8,0 -8,0 z m -18,0 h 8 v 1 c 0,0 -8,0 -8,0 z m -18,0 h 8 v 1 c 0,0 -8,0 -8,0 z M 4,75 h 8 v 1 c 0,0 -8,0 -8,0 z M 0,62 h 1 v 8 H 0 Z M 0,44 h 1 v 8 H 0 Z M 0,26 h 1 v 8 H 0 Z M 0,8 h 1 v 8 H 0 Z"
           stroke="none"
           fill="#ffffff"
           id="path835" />
      </g>
      <g
         id="Сгруппировать_246-7"
         data-name="Сгруппировать 246"
         transform="matrix(0.92632807,0,0,0.9454956,65.809847,84.199517)">
        <g
           id="Контур_20-2"
           data-name="Контур 20"
           transform="translate(850,1547.251)"
           fill="none"
           stroke-dasharray="8, 10">
          <path
             d="M 0,0 H 76 V 76 H 0 Z"
             stroke="none"
             id="path833-0" />
        </g>
        <g
           style="fill:none"
           id="g1012"
           transform="matrix(0.56811888,0,0,0.56811888,883.84305,1534.659)">
          <path
             d="m 22.164031,54.613928 c 16.320807,0 29.551413,-12.968323 29.551413,-28.965588 0,-15.9972651 -13.230606,-28.9655872 -29.551413,-28.9655872 -16.3208081,0 -29.5514142,12.9683221 -29.5514142,28.9655872 0,15.997265 13.2306061,28.965588 29.5514142,28.965588 z"
             fill="#323428"
             id="path972"
             style="fill:#323428;fill-opacity:1;stroke-width:1.08359" />
        </g>
      </g>
      <g
         style="fill:none"
         id="g1097"
         transform="matrix(0.66005531,0,0,0.65418908,877.80558,1532.8571)">
        <circle
           cx="23.7582"
           cy="21.761101"
           r="3.7990301"
           transform="rotate(13.5456,23.7582,21.7611)"
           fill="#98bb1a"
           id="circle1060" />
        <ellipse
           cx="22.143101"
           cy="26.8428"
           rx="4.1789398"
           ry="3.7990301"
           transform="rotate(13.5456,22.1431,26.8428)"
           fill="#98bb1a"
           id="ellipse1062" />
        <ellipse
           cx="21.327801"
           cy="30.4331"
           rx="3.1807001"
           ry="4.54386"
           transform="rotate(28.2072,21.3278,30.4331)"
           fill="#98bb1a"
           id="ellipse1064" />
        <circle
           cx="30"
           cy="23"
           r="5"
           fill="#bee33a"
           id="circle1066" />
        <ellipse
           cx="29.5"
           cy="30"
           rx="5.5"
           ry="5"
           fill="#bee33a"
           id="ellipse1068" />
        <ellipse
           cx="29.563601"
           cy="34.8451"
           rx="4.1862001"
           ry="5.9802799"
           transform="rotate(14.6616,29.5636,34.8451)"
           fill="#bee33a"
           id="ellipse1070" />
        <ellipse
           opacity="0.5"
           cx="29.7141"
           cy="12.2702"
           rx="1.5"
           ry="4"
           transform="rotate(18.8887,29.7141,12.2702)"
           fill="#a2d661"
           id="ellipse1072" />
        <ellipse
           opacity="0.5"
           cx="35.1978"
           cy="16.5182"
           rx="0.98944402"
           ry="3.0487399"
           transform="rotate(73.8516,35.1978,16.5182)"
           fill="#a2d661"
           id="ellipse1074" />
        <ellipse
           opacity="0.5"
           cx="24.012199"
           cy="15.6558"
           rx="0.98944402"
           ry="3.0487399"
           transform="rotate(127.97,24.0122,15.6558)"
           fill="#a2d661"
           id="ellipse1076" />
      </g>
    </g>
  </g>
</svg>
