<svg width="38" height="37" viewBox="0 0 38 37" fill="none" xmlns="http://www.w3.org/2000/svg">
<rect x="0.761963" width="37" height="37" rx="18.5" fill="white"/>
<path fill-rule="evenodd" clip-rule="evenodd" d="M9.70694 17.3373C9.6028 17.4123 9.48223 17.4612 9.35532 17.48C9.2284 17.4988 9.09883 17.4869 8.97744 17.4454L8.26144 17.2C8.15336 17.1631 8.05951 17.0934 7.99305 17.0005C7.9266 16.9077 7.89087 16.7963 7.89087 16.6821C7.89087 16.5679 7.9266 16.4566 7.99305 16.3637C8.05951 16.2709 8.15336 16.2011 8.26144 16.1643L8.97744 15.9188C9.16056 15.8562 9.36009 15.8616 9.53958 15.9339C9.71908 16.0063 9.86655 16.1408 9.95506 16.3129C10.0436 16.485 10.0672 16.6832 10.0217 16.8713C9.9761 17.0594 9.86439 17.2248 9.70694 17.3373" fill="#4B1510"/>
<path fill-rule="evenodd" clip-rule="evenodd" d="M9.54929 23.3423C9.49361 23.2458 9.47567 23.1321 9.49896 23.0232C9.52225 22.9142 9.58511 22.8177 9.67538 22.7524L11.3438 21.5501C11.4856 21.4477 11.6623 21.4059 11.835 21.4337C12.0077 21.4616 12.1622 21.5569 12.2647 21.6987C12.2782 21.7167 12.2894 21.737 12.3007 21.755C12.3443 21.8299 12.3726 21.9126 12.384 21.9985C12.3955 22.0844 12.3899 22.1717 12.3675 22.2554C12.3451 22.3391 12.3064 22.4175 12.2536 22.4862C12.2008 22.5549 12.1349 22.6125 12.0598 22.6556L11.999 22.6871L10.1234 23.5315C10.0216 23.577 9.90648 23.583 9.8004 23.5485C9.69433 23.514 9.60485 23.4413 9.54929 23.3446" fill="#4B1510"/>
<path fill-rule="evenodd" clip-rule="evenodd" d="M12.3008 11.8391C12.2537 11.9179 12.1912 11.9863 12.1168 12.0401C12.0425 12.0939 11.958 12.132 11.8685 12.1521C11.7783 12.1719 11.685 12.1725 11.5947 12.1539C11.5043 12.1353 11.4188 12.0978 11.3439 12.044L9.67545 10.8394C9.58529 10.7738 9.52266 10.6772 9.49967 10.5681C9.47668 10.459 9.49497 10.3453 9.55101 10.2489C9.60704 10.1525 9.69683 10.0803 9.803 10.0463C9.90917 10.0124 10.0242 10.019 10.1258 10.0649L12.0013 10.9069C12.0803 10.9421 12.1516 10.9924 12.2112 11.0551C12.2707 11.1178 12.3172 11.1917 12.3482 11.2724C12.3792 11.3531 12.3939 11.4391 12.3915 11.5256C12.3892 11.612 12.3698 11.6971 12.3345 11.7761C12.3345 11.7963 12.3143 11.8166 12.303 11.8368" fill="#4B1510"/>
<path fill-rule="evenodd" clip-rule="evenodd" d="M28.1766 23.342C28.1211 23.4388 28.0316 23.5114 27.9255 23.546C27.8194 23.5805 27.7043 23.5744 27.6025 23.5289L25.7269 22.6846C25.5681 22.6141 25.4437 22.4834 25.3812 22.3213C25.3187 22.1592 25.3232 21.9788 25.3937 21.82L25.4275 21.7547C25.4704 21.6793 25.5279 21.6133 25.5965 21.5603C25.6652 21.5073 25.7437 21.4685 25.8274 21.4461C25.9112 21.4237 25.9986 21.4181 26.0845 21.4297C26.1705 21.4414 26.2533 21.4699 26.3281 21.5138L26.3844 21.5498L28.0528 22.7521C28.1431 22.8174 28.2059 22.9139 28.2292 23.0229C28.2525 23.1318 28.2346 23.2455 28.1789 23.342" fill="#4B1510"/>
<path fill-rule="evenodd" clip-rule="evenodd" d="M28.0503 10.8417L26.3819 12.0462C26.2389 12.148 26.0613 12.1889 25.8882 12.1597C25.7151 12.1306 25.5606 12.0339 25.4588 11.8909L25.4273 11.8413C25.3827 11.7675 25.3533 11.6855 25.3405 11.6002C25.3277 11.5149 25.3319 11.428 25.3528 11.3443C25.3737 11.2606 25.411 11.1819 25.4624 11.1126C25.5138 11.0434 25.5784 10.985 25.6524 10.9407C25.673 10.9273 25.6948 10.9159 25.7177 10.9069L27.5933 10.0649C27.6948 10.019 27.8099 10.0124 27.916 10.0463C28.0222 10.0803 28.112 10.1525 28.168 10.2489C28.224 10.3453 28.2423 10.459 28.2194 10.5681C28.1964 10.6772 28.1337 10.7738 28.0436 10.8394" fill="#4B1510"/>
<path fill-rule="evenodd" clip-rule="evenodd" d="M30.0612 16.682C30.0616 16.7961 30.0262 16.9074 29.9599 17.0004C29.8937 17.0933 29.7999 17.163 29.6919 17.1998L28.9737 17.4452C28.772 17.511 28.5525 17.4946 28.3629 17.3996C28.1732 17.3046 28.0286 17.1387 27.9605 16.9378C27.8923 16.737 27.9061 16.5173 27.9988 16.3265C28.0916 16.1357 28.2557 15.9892 28.4558 15.9187C28.6238 15.8624 28.8056 15.8624 28.9737 15.9187L29.6919 16.1641C29.7998 16.2012 29.8933 16.271 29.9595 16.3639C30.0257 16.4567 30.0613 16.5679 30.0612 16.682" fill="#4B1510"/>
<path fill-rule="evenodd" clip-rule="evenodd" d="M9.70694 17.3373C9.6028 17.4123 9.48223 17.4612 9.35532 17.48C9.2284 17.4988 9.09883 17.4869 8.97744 17.4454L8.26144 17.2C8.15336 17.1631 8.05951 17.0934 7.99305 17.0005C7.9266 16.9077 7.89087 16.7963 7.89087 16.6821C7.89087 16.5679 7.9266 16.4566 7.99305 16.3637C8.05951 16.2709 8.15336 16.2011 8.26144 16.1643L8.97744 15.9188C9.16056 15.8562 9.36009 15.8616 9.53958 15.9339C9.71908 16.0063 9.86655 16.1408 9.95506 16.3129C10.0436 16.485 10.0672 16.6832 10.0217 16.8713C9.9761 17.0594 9.86439 17.2248 9.70694 17.3373" fill="#4B1510"/>
<path d="M21.7889 15.8129C21.8697 15.9583 21.9079 16.1234 21.8991 16.2895C21.8904 16.4555 21.835 16.6158 21.7394 16.7518C21.0977 17.6885 20.1993 18.4 19.0555 18.4H18.8123C17.8239 18.3144 16.7859 17.6682 16.1442 16.8914C16.0285 16.7499 15.9585 16.5766 15.9436 16.3944C15.9287 16.2122 15.9697 16.0298 16.0609 15.8715C16.3127 15.4518 16.4458 14.9716 16.4459 14.4822C16.4461 14.0229 16.3332 13.5705 16.1172 13.1651C16.038 13.0209 16.0006 12.8574 16.0094 12.6931C16.0181 12.5288 16.0726 12.3702 16.1667 12.2352C16.2159 12.3008 16.2726 12.3605 16.3356 12.4131C16.5624 12.5914 16.8415 12.6902 17.13 12.6943C17.4184 12.6984 17.7003 12.6075 17.932 12.4356C17.932 12.9467 18.4476 13.361 19.0803 13.361C19.138 13.3654 19.1959 13.3654 19.2536 13.361C19.8075 13.2934 20.2308 12.9107 20.2308 12.4468C20.4657 12.6226 20.7527 12.7148 21.0461 12.7087C21.3394 12.7026 21.6223 12.5985 21.8497 12.4131L21.9127 12.3568C21.9546 12.481 21.9688 12.6128 21.9544 12.7431C21.94 12.8734 21.8973 12.9989 21.8294 13.111C21.5805 13.5283 21.4498 14.0054 21.4512 14.4912C21.4516 14.9552 21.5677 15.4118 21.7889 15.8197V15.8129ZM25.5693 6.35636C25.5363 6.30818 25.4942 6.26689 25.4454 6.23477C25.3384 6.16185 25.2092 6.12889 25.0804 6.14165C24.9515 6.15441 24.8313 6.21208 24.7407 6.30457C23.7995 7.20519 22.7143 7.38982 22.1154 8.22515C22.0658 8.11582 22.0031 8.01299 21.9285 7.91894C21.7549 7.69909 21.5198 7.53602 21.253 7.45061C20.9463 7.34694 20.6117 7.36303 20.3164 7.49565C20.231 7.20748 20.0547 6.95463 19.8139 6.77481C19.5731 6.59499 19.2806 6.49784 18.9801 6.49784C18.6795 6.49784 18.387 6.59499 18.1462 6.77481C17.9054 6.95463 17.7291 7.20748 17.6438 7.49565C17.366 7.37814 17.0572 7.35594 16.7656 7.43252C16.4739 7.50911 16.2158 7.68016 16.0316 7.91894C15.955 8.01153 15.8921 8.11465 15.8448 8.22515C15.1941 7.33578 14.0165 7.05884 13.0371 6.1312C13.0026 6.09253 12.9608 6.06107 12.9142 6.03864C12.8675 6.01621 12.8168 6.00326 12.7651 6.00054C12.7134 5.99782 12.6616 6.00538 12.6129 6.02278C12.5641 6.04018 12.5192 6.06709 12.4809 6.10193C12.4606 6.11921 12.4425 6.13886 12.4269 6.16047C12.3427 6.27397 12.2903 6.40793 12.2753 6.54847C12.2602 6.68901 12.283 6.83102 12.3413 6.95977C12.974 8.45256 13.8003 9.3712 14.4128 10.2763C14.4906 10.4053 14.5971 10.5146 14.724 10.5958C14.8509 10.6771 14.9948 10.728 15.1445 10.7446C14.8297 11.2549 14.62 11.8229 14.5276 12.4153C13.8521 12.5999 13.3365 13.4173 13.3365 14.4012C13.3365 15.2748 13.7441 16.0223 14.3137 16.3038L13.9917 25.8414L13.8026 31.45H17.2835C19.6259 31.4539 21.9353 30.8989 24.0202 29.8311L24.099 29.7884L23.6509 16.4456V16.3038C23.6849 16.288 23.7173 16.2692 23.7477 16.2475C24.2679 15.9345 24.6281 15.223 24.6281 14.4012C24.6285 14.3034 24.6232 14.2057 24.6123 14.1085C24.5223 13.2574 24.0472 12.5819 23.437 12.4153C23.3471 11.8223 23.1372 11.2538 22.8201 10.7446C22.9701 10.7278 23.1142 10.6768 23.2414 10.5957C23.3687 10.5145 23.4756 10.4052 23.5541 10.2763C24.162 9.3757 24.9839 8.4458 25.6143 6.98229L25.6413 6.91925C25.6833 6.82851 25.6995 6.72793 25.688 6.6286C25.6765 6.52927 25.6377 6.43505 25.576 6.35636" fill="#4B1510"/>
<path fill-rule="evenodd" clip-rule="evenodd" d="M20.3142 14.7346L19.5644 15.4236C19.4997 15.4846 19.4537 15.5626 19.4316 15.6487C19.382 15.8469 19.2852 16.2364 19.2064 16.6056C19.1941 16.6556 19.165 16.6998 19.124 16.7309C19.0831 16.7621 19.0327 16.7782 18.9812 16.7767C18.9298 16.7782 18.8794 16.7621 18.8384 16.7309C18.7975 16.6998 18.7684 16.6556 18.7561 16.6056L18.5174 15.6487C18.4964 15.5622 18.4502 15.4838 18.3846 15.4236L17.6348 14.7346C17.5929 14.6924 17.5693 14.6353 17.5693 14.5758C17.5693 14.5164 17.5929 14.4593 17.6348 14.4171C17.659 14.3913 17.6889 14.3715 17.7222 14.3593C17.7554 14.3472 17.7911 14.3431 17.8262 14.3473L18.952 14.5004H19.0128L19.1006 14.4892L20.1385 14.3473C20.1845 14.3427 20.2307 14.3523 20.271 14.3749C20.3113 14.3975 20.3436 14.4318 20.3637 14.4734C20.384 14.5168 20.3899 14.5655 20.3806 14.6125C20.3712 14.6594 20.3472 14.7022 20.3119 14.7346" fill="#4B1510"/>
</svg>
