<?xml version="1.0" standalone="no"?>
<!DOCTYPE svg PUBLIC "-//W3C//DTD SVG 20010904//EN"
 "http://www.w3.org/TR/2001/REC-SVG-20010904/DTD/svg10.dtd">
<svg version="1.0" xmlns="http://www.w3.org/2000/svg"
 width="76.000000pt" height="76.000000pt" viewBox="0 0 76.000000 76.000000"
 preserveAspectRatio="xMidYMid meet">
<metadata>
Created by potrace 1.11, written by Peter Selinger 2001-2013
</metadata>
<g transform="translate(0.000000,76.000000) scale(0.100000,-0.100000)"
fill="#000000" stroke="none">
<path d="M429 677 c-25 -19 -39 -53 -39 -94 0 -21 -4 -33 -8 -27 -4 5 -24 20
-44 33 -30 18 -38 19 -38 8 0 -29 34 -58 73 -61 33 -3 39 0 53 25 13 26 31
130 22 129 -2 0 -10 -6 -19 -13z"/>
<path d="M516 571 c-3 -4 -24 -11 -46 -15 -22 -3 -40 -10 -40 -15 0 -16 -51
-30 -93 -25 -36 5 -45 2 -66 -20 -13 -14 -24 -39 -25 -58 -1 -18 -8 -43 -14
-55 -25 -46 0 -200 32 -190 6 1 25 31 42 65 27 54 32 60 38 40 3 -13 6 -43 6
-68 0 -52 16 -116 31 -125 12 -8 74 38 96 72 9 14 18 42 19 62 1 20 5 44 9 54
4 9 4 32 1 50 -4 17 -6 41 -5 52 5 59 1 87 -16 105 -18 20 -18 20 12 20 25 0
33 5 42 30 8 24 7 30 -4 30 -8 0 -16 -4 -19 -9z"/>
</g>
</svg>
