<svg width="124" height="124" viewBox="0 0 124 124" fill="none" xmlns="http://www.w3.org/2000/svg">
<circle cx="62" cy="62" r="62" fill="#323428"/>
<path d="M95.5001 65.0001C97.0001 63.5001 97 63.0001 95.5 61.5001L74.2433 48.2736C73.306 47.5812 72.9098 47.6486 72.4001 48.5001L67.0001 57.5001C66.6001 59.5001 67.5001 59.6667 68 59.5001H70.5C72.9 59.5001 73.1667 58.1667 73.0001 57.5001C73.4001 53.5001 75.1667 54.5001 76 55.5001L83.5 63.5001C82.6667 64.5001 79 67.5001 76.5 70.0001C73.4586 73.0414 72.5 69.5001 73.0001 68.0001C73.4001 66.8001 72.8334 66.1667 72.5 66.0001H68.5001C66.9001 66.0001 66.8334 66.6667 67.0001 67.0001C68.1667 69.3334 70.8001 74.5001 72.0001 76.5001C73.2001 78.5001 74.8334 77.6667 75.5001 77.0001C81.1667 73.6667 91.5 67.5001 95.5001 65.0001Z" fill="#BEE33A"/>
<path d="M46.4559 31.3513C44.4069 30.8022 43.9739 31.0523 43.4248 33.1013L42.5988 58.1233C42.4677 59.2813 42.7242 59.5908 43.7165 59.6064L54.2107 59.783C56.1427 59.1294 55.8371 58.2666 55.4428 57.917L54.1928 55.7519C52.9928 53.6734 51.7047 54.1092 51.2107 54.5868C47.5466 56.2404 47.5293 54.2104 47.9787 52.9888L51.1569 42.4936C52.4396 42.7153 56.871 44.3907 60.2861 45.3058C64.4407 46.419 61.853 49.0199 60.304 49.3368C59.0647 49.5904 58.7996 50.3978 58.8219 50.7699L60.8219 54.2339C61.6219 55.6196 62.2326 55.344 62.4379 55.033C63.8753 52.8559 67.0331 47.9921 68.1652 45.9528C69.2972 43.9136 67.7589 42.9158 66.8482 42.6718C61.1281 39.4309 50.621 33.5654 46.4559 31.3513Z" fill="#F9FFD9"/>
<path d="M46.4559 93.3668C44.4069 93.9158 43.9739 93.6657 43.4248 91.6167L42.5988 66.5947C42.4677 65.4367 42.7242 65.1273 43.7165 65.1116L54.2107 64.935C56.1427 65.5886 55.8371 66.4514 55.4428 66.801L54.1928 68.9661C52.9928 71.0446 51.7047 70.6089 51.2107 70.1312C47.5466 68.4776 47.5293 70.5076 47.9787 71.7292L51.1569 82.2244C52.4396 82.0027 56.871 80.3273 60.2861 79.4122C64.4407 78.299 61.853 75.6982 60.304 75.3812C59.0647 75.1276 58.7996 74.3202 58.8219 73.9482L60.8219 70.4841C61.6219 69.0984 62.2326 69.374 62.4379 69.685C63.8753 71.8621 67.0331 76.7259 68.1652 78.7652C69.2972 80.8044 67.7589 81.8022 66.8482 82.0463C61.1281 85.2871 50.621 91.1526 46.4559 93.3668Z" fill="#F9FFD9"/>
<circle opacity="0.2" cx="64.4596" cy="17.3182" r="7.19697" fill="#7F854F"/>
<circle cx="26.5556" cy="37.9495" r="2.87879" fill="#7F854F"/>
<circle opacity="0.5" cx="32.3131" cy="98.4041" r="2.87879" fill="#7F854F"/>
<circle opacity="0.5" cx="99.4849" cy="91.6869" r="2.87879" fill="#657233"/>
<circle opacity="0.5" r="1.91919" transform="matrix(-1 0 0 1 109.081 54.2626)" fill="#657233"/>
<circle opacity="0.5" r="0.959596" transform="matrix(-1 0 0 1 68.7778 109.919)" fill="#657233"/>
<circle opacity="0.5" r="0.959596" transform="matrix(-1 0 0 1 87.0101 33.1515)" fill="#657233"/>
<circle opacity="0.5" r="0.959596" transform="matrix(-1 0 0 1 16.9596 61.9395)" fill="#657233"/>
</svg>
