<svg width="58" height="48" viewBox="0 0 58 48" fill="none" xmlns="http://www.w3.org/2000/svg">
<path d="M18.2398 47.5642C40.1267 47.5642 52.0979 29.4311 52.0979 13.7061C52.0979 13.1911 52.0979 12.6783 52.0631 12.1679C54.392 10.4834 56.4023 8.39765 58 6.00833C55.8284 6.97114 53.5244 7.60226 51.1653 7.88057C53.6496 6.39357 55.5088 4.05447 56.3969 1.29873C54.0611 2.68495 51.5055 3.66181 48.8406 4.18713C47.0465 2.27936 44.6736 1.01608 42.0891 0.592788C39.5047 0.169492 36.8528 0.609778 34.5438 1.84551C32.2347 3.08125 30.3974 5.04354 29.316 7.42873C28.2346 9.81391 27.9694 12.489 28.5615 15.0401C23.8305 14.8028 19.2022 13.5733 14.9772 11.4313C10.7521 9.28944 7.02468 6.28301 4.0368 2.60721C2.51509 5.22687 2.04903 8.32801 2.73349 11.2792C3.41796 14.2305 5.20149 16.8099 7.72096 18.4923C5.82714 18.4368 3.97457 17.9259 2.32 17.0028V17.1536C2.32075 19.901 3.27181 22.5636 5.01185 24.6897C6.7519 26.8158 9.17381 28.2746 11.8668 28.8186C10.1149 29.2964 8.27678 29.3663 6.49368 29.0227C7.25439 31.387 8.73487 33.4545 10.7282 34.9362C12.7215 36.4178 15.1279 37.2396 17.6111 37.2866C15.1439 39.2259 12.3185 40.6597 9.29661 41.5061C6.27472 42.3524 3.1156 42.5946 0 42.2189C5.44193 45.711 11.7738 47.5634 18.2398 47.5549" fill="#F0F0F0"/>
</svg>
