<svg width="59" height="49" viewBox="0 0 59 49" fill="none" xmlns="http://www.w3.org/2000/svg">
<path d="M48.6657 8.52894L23.5855 32.3961L22.3132 46.1754C25.5258 45.083 29.0845 39.4134 32.3522 39.9217C36.6916 40.5962 43.8582 51.7527 48.4687 48.2792C50.9207 46.432 51.1171 40.8214 51.6774 38.0186C53.48 29.0092 55.4954 20.0431 57.325 11.0387C57.8508 8.45007 60.7288 0.741649 56.1579 0.310221C52.2377 -0.059781 46.6146 3.33499 43.0187 4.7643C33.2262 8.65687 23.3558 12.3708 13.529 16.1768C10.5291 17.3388 2.58093 18.8334 1.09057 21.9248C-0.336045 24.8838 6.84325 25.9743 8.50948 26.5177C17.2142 29.3549 21.2242 25.3023 28.5876 20.7163C35.128 16.6424 41.5806 11.5858 48.6657 8.52894Z" fill="white"/>
</svg>
