<svg width="70" height="62" viewBox="0 0 70 62" fill="none" xmlns="http://www.w3.org/2000/svg">
<path d="M30.2126 61.8883C18.2242 60.2666 9.26807 54.8695 5.54921 47.0255C4.50972 44.833 3.84781 41.4141 4.06587 39.3639C4.23473 37.7763 4.21717 37.7283 3.05982 36.6125C1.53635 35.1437 0.741644 33.4459 0.556252 31.2641C0.271277 27.9102 1.71547 25.084 4.56337 23.4222C5.85507 22.6685 6.44282 22.5197 8.13727 22.517C9.88204 22.5142 10.3904 22.6494 11.7776 23.4849L13.3899 24.4559L15.8974 23.0668C20.4276 20.557 25.9731 18.9631 31.8093 18.4932L34.4163 18.2833L36.6957 10.5324C37.9495 6.26939 39.0865 2.5389 39.2226 2.24241C39.5861 1.45042 40.4535 1.54998 46.603 3.08954C49.6483 3.85197 52.32 4.47577 52.5401 4.47577C52.7601 4.47577 53.2755 3.93493 53.6854 3.27391C55.3905 0.524177 59.2059 -0.283002 62.0603 1.50212C67.1595 4.69117 65.2965 13.1999 59.3995 13.6552C55.7922 13.9336 53.2391 11.8544 52.5793 8.10086L52.3822 6.97982L47.2871 5.69827C44.4848 4.99342 41.9137 4.3494 41.5735 4.26713C41.0473 4.13985 40.8884 4.33955 40.5083 5.60587C37.9359 14.1761 36.8314 18.111 36.9597 18.2479C37.0441 18.338 38.2559 18.5335 39.6526 18.6824C45.1033 19.2635 49.701 20.6655 54.0912 23.0852L56.6617 24.502L58.3754 23.5095C59.8431 22.6594 60.379 22.5172 62.1097 22.5186C63.7977 22.52 64.3848 22.6687 65.6762 23.4222C68.5241 25.084 69.9683 27.9102 69.6833 31.2641C69.4923 33.5126 68.6736 35.2005 67.021 36.7529C65.7676 37.9302 65.7111 38.0531 65.8859 39.2197C65.9871 39.8949 65.9118 41.4471 65.7187 42.6689C64.3451 51.3599 55.7839 58.5938 43.7899 61.1982C41.1002 61.7822 32.6162 62.2134 30.2126 61.8883ZM41.9976 53.1486C45.2894 51.9058 47.2809 49.6806 45.8387 48.8569C45.3772 48.5934 45.1052 48.6713 44.4501 49.2548C42.4323 51.052 39.4298 51.9048 35.1198 51.9048C30.8098 51.9048 27.8073 51.052 25.7896 49.2548C25.1459 48.6816 24.8579 48.5959 24.4184 48.8469C22.5308 49.925 25.9502 52.7626 30.3569 53.7749C30.9919 53.9208 33.46 53.9947 35.8415 53.9391C39.425 53.8555 40.4862 53.7192 41.9976 53.1486ZM26.4686 40.4406C28.1372 39.541 29.0579 38.0681 29.0579 36.2981C29.0579 32.8025 25.9995 30.4917 23.0436 31.7538C19.1124 33.4324 19.1747 39.1748 23.1403 40.671C24.7037 41.2609 24.9829 41.2416 26.4686 40.4406H26.4686ZM47.9351 40.2561C49.2027 39.4848 49.9089 38.2638 50.0422 36.6129C50.1898 34.7844 49.5283 33.2739 48.1495 32.2909C46.606 31.1907 45.4429 31.0944 43.8545 31.9354C41.4737 33.196 40.5794 35.6302 41.5748 38.1401C42.6036 40.7339 45.5427 41.7117 47.9351 40.2561Z" fill="white"/>
</svg>
